<svg xmlns="http://www.w3.org/2000/svg" width="451.221" height="428.637" viewBox="0 0 451.221 428.637">
  <g id="sign-up-image" transform="translate(-726.779 -310.799)">
    <g id="Illustration" transform="translate(726.779 310.799)">
      <path id="Path_FILL:STYLE1_LIGHT_" data-name="Path [FILL:STYLE1/LIGHT]" d="M112.744,93.636c9.551.707,13.9,9.611,45.414-7.6S212.385-6.24,266.778.417s79.19,37.259,88.374,92.445-13.366,84.062-19.273,117.068-58.852,77.308-140.258,41.636S85.8,221.6,46.229,230.311-18.866,192.874,17.54,137.5,103.192,92.93,112.744,93.636Z" transform="matrix(0.788, -0.616, 0.616, 0.788, 0, 219.99)" fill="#424242"/>
      <path id="Path_FILL:STYLE1_BRAND_" data-name="Path [FILL:STYLE1/BRAND]" d="M233.789,182.771H368.177A28.61,28.61,0,0,1,396.046,205.2l67.9,303.178a23.361,23.361,0,0,1-4.142,19.176,23.045,23.045,0,0,1-17.246,9.15L304.41,543.558a30.548,30.548,0,0,1-31.517-25.2l-38.519-214.35-2.866.824-7.37-40.627,2.95-.742-10.752-59.833a17.789,17.789,0,0,1,3.856-14.558A17.542,17.542,0,0,1,233.789,182.771Z" transform="translate(-131.176 -127.209)" fill="#fff"/>
      <path id="Path_FILL:STYLE1_LIGHT_2" data-name="Path [FILL:STYLE1/LIGHT]" d="M360.968,194.4h15.687a19.773,19.773,0,0,1,19.289,15.637l65.178,300.7a12.377,12.377,0,0,1-2.178,10.031,12.212,12.212,0,0,1-8.974,4.882l-137.705,9.085a15.864,15.864,0,0,1-16.629-13.087L240.02,210.842a14.035,14.035,0,0,1,3.01-11.435,13.84,13.84,0,0,1,10.647-5.009h14.882a6.556,6.556,0,0,1,6.324,4.878h0a5.788,5.788,0,0,0,5.583,4.307h70.649a9.91,9.91,0,0,0,9.854-9.185Z" transform="translate(-141.659 -132.299)" fill="#424242"/>
      <ellipse id="Path_FILL:STYLE1_BRAND_2" data-name="Path [FILL:STYLE1/BRAND]" cx="20.553" cy="20.689" rx="20.553" ry="20.689" transform="translate(381.464 105.45)" fill="#fff"/>
      <path id="Path_FILL:STYLE1_TEXT_" data-name="Path [FILL:STYLE1/TEXT]" d="M725.149,694.313l3.91,16.866h-9.495l-3.91-19.115Z" transform="translate(-300.958 -308.915)" fill="#a7a7ad"/>
      <path id="Path_FILL:STYLE1_TEXT_2" data-name="Path [FILL:STYLE1/TEXT]" d="M643.149,696.064v15.742l-9.495,1.125V696.064Z" transform="translate(-264.757 -310.666)" fill="#a7a7ad"/>
      <path id="Path_FILL:STYLE1_TEXT_3" data-name="Path [FILL:STYLE1/TEXT]" d="M814.008,451.02s-1.117,24.175-2.234,25.861-11.17,25.861-11.17,25.861L795.577,487s7.819-12.931,6.7-20.239a84.564,84.564,0,0,1-.413-16.3Z" transform="translate(-387.025 -244.402)" fill="#a7a7ad"/>
      <ellipse id="Path_FILL:STYLE1_TEXT_4" data-name="Path [FILL:STYLE1/TEXT]" cx="15.639" cy="15.742" rx="15.639" ry="15.742" transform="translate(379.509 116.665)" fill="#a7a7ad"/>
      <path id="Path_FILL:STYLE1_TEXT_5" data-name="Path [FILL:STYLE1/TEXT]" d="M779.566,322.456s-.559,22.488,3.351,25.861-22.341.562-22.341.562,5.585-15.742,1.117-19.115S779.566,322.456,779.566,322.456Z" transform="translate(-371.573 -188.363)" fill="#a7a7ad"/>
      <path id="Path_FILL:STYLE1_FOREGROUND_" data-name="Path [FILL:STYLE1/FOREGROUND]" d="M731.149,363.05s3.351-6.184,7.819-5.622,18.99,1.687,19.548,2.811,2.234,5.06,3.351,6.184,9.495,2.811,10.053,9.557-20.107,47.787-20.107,47.787,2.793,9.557,2.234,11.806,2.792,9,2.234,11.806,8.378,19.677,3.91,41.6V524.4s15.08,61.28,10.612,65.778-19.548,1.687-22.341,0S733.941,503.6,733.941,503.6l-5.585-28.672L727.8,537.9s1.117,52.847-2.793,54.534-18.99,2.249-20.107-1.125c-.871-2.631-5.14-72.63-6.976-103.314a115.367,115.367,0,0,1,2.459-31.582c2.325-10.613,5.7-23.082,9.544-28.143,7.261-9.557,11.729-39.916,11.729-39.916l-9.495-17.428s5.585-5.622,8.936-5.622S731.149,363.05,731.149,363.05Z" transform="translate(-343.82 -203.658)" fill="#eee"/>
      <path id="Path_FILL:STYLE1_FOREGROUND_2" data-name="Path [FILL:STYLE1/FOREGROUND]" d="M815.963,383.456l2.945,2.018s2.081,36.212.406,38.461-13.325,1.151-14.2-.83S815.963,383.456,815.963,383.456Z" transform="translate(-391.213 -215.069)" fill="#eee"/>
      <path id="Path_FILL:STYLE1_TEXT_6" data-name="Path [FILL:STYLE1/TEXT]" d="M695.535,439.572c1.635,11.416,3.068,21.579-5.292,30.773a157.155,157.155,0,0,1-28.224,24.609c-1.025,2.734-16.077,22.81-16.843,14.8S649.611,495.469,657,488.7s17.729-21.465,23.562-29.527,3.432-13.09,3.229-19.824S693.241,439.653,695.535,439.572Z" transform="translate(-320.593 -238.26)" fill="#a7a7ad"/>
      <path id="Path_FILL:STYLE1_FOREGROUND_3" data-name="Path [FILL:STYLE1/FOREGROUND]" d="M718.358,781.255s-.559,6.3-2.234,7.984-6.144,3.935-5.585,10.12,4.189,6.465,4.189,6.465l-.279-1.406,1.676.562.279.843h15.639a51.023,51.023,0,0,0-.279-8.714c-.559-2.811-.559-16.3-2.234-15.742s-6.144,1.125-7.261,3.373S717.8,786.2,718.358,781.255Z" transform="translate(-349.461 -389.224)" fill="#eee"/>
      <path id="Path_FILL:STYLE1_FOREGROUND_4" data-name="Path [FILL:STYLE1/FOREGROUND]" d="M815.705,781.255s.559,6.3,2.234,7.984,6.144,3.935,5.585,10.12-4.189,6.465-4.189,6.465l.279-1.406-1.675.562-.279.843H802.022a51,51,0,0,1,.279-8.714c.558-2.811.558-16.3,2.234-15.742s6.144,1.125,7.261,3.373S816.264,786.2,815.705,781.255Z" transform="translate(-389.839 -389.224)" fill="#eee"/>
      <path id="Path_FILL:STYLE1_FOREGROUND_5" data-name="Path [FILL:STYLE1/FOREGROUND]" d="M725.777,378.456l-7.819,1.687s0,12.368-2.234,17.428S709.58,414.437,711.256,415s17.314,8.433,18.431,3.936S733.6,378.456,725.777,378.456Z" transform="translate(-349.619 -212.88)" fill="#eee"/>
      <ellipse id="Path_FILL:STYLE1_BRAND_3" data-name="Path [FILL:STYLE1/BRAND]" cx="20.553" cy="20.689" rx="20.553" ry="20.689" transform="translate(403.73 78.21)" fill="#fff"/>
      <path id="Path_FILL:STYLE1_BRAND_4" data-name="Path [FILL:STYLE1/BRAND]" d="M830.4,275.262a20.507,20.507,0,0,1-31.74-10.863,20.662,20.662,0,0,0,13.466,16.9,20.455,20.455,0,0,0,21.061-4.457,20.781,20.781,0,0,0,5.567-20.926A20.741,20.741,0,0,1,830.4,275.262Z" transform="translate(-388.384 -159.231)" fill="#fff"/>
      <ellipse id="Path_FILL:STYLE1_BRAND_5" data-name="Path [FILL:STYLE1/BRAND]" cx="15.072" cy="15.172" rx="15.072" ry="15.172" transform="translate(392.426 114.416)" fill="#fff"/>
      <ellipse id="Path_FILL:STYLE1_BRAND_6" data-name="Path [FILL:STYLE1/BRAND]" cx="13.36" cy="10.517" rx="13.36" ry="10.517" transform="translate(381.464 113.381)" fill="#fff"/>
      <ellipse id="Path_FILL:STYLE1_TEXT_7" data-name="Path [FILL:STYLE1/TEXT]" cx="2.536" cy="4.516" rx="2.536" ry="4.516" transform="translate(388.725 130.159)" fill="#a7a7ad"/>
    </g>
    <g id="Lock" transform="translate(-263 38.75)">
      <path id="lock-background" d="M40.042,0A40.042,40.042,0,1,1,0,40.042,40.042,40.042,0,0,1,40.042,0Z" transform="translate(1153.902 464.836)" fill="#34ffc8"/>
      <g id="lock-item">
        <path id="Path_24" data-name="Path 24" d="M909.823,262.29H876.646A2.29,2.29,0,0,1,874.357,260V239.981a2.29,2.29,0,0,1,2.288-2.288h33.178a2.29,2.29,0,0,1,2.288,2.288V260A2.29,2.29,0,0,1,909.823,262.29Zm-33.178-22.309V260h33.179l0-20.021Z" transform="translate(300.709 260.035)" fill="#fff"/>
        <path id="Path_25" data-name="Path 25" d="M911.531,222.914H890.938v-9.153c0-6.629,4.33-11.441,10.3-11.441s10.3,4.811,10.3,11.441Zm-18.3-2.288h16.017v-6.864c0-5.389-3.293-9.152-8.008-9.152s-8.008,3.764-8.008,9.152Z" transform="translate(292.709 277.102)" fill="#fff"/>
        <circle id="Ellipse_9" data-name="Ellipse 9" cx="2.288" cy="2.288" r="2.288" transform="translate(1191.656 507.166)" fill="#fff"/>
      </g>
    </g>
  </g>
</svg>
